<?xml version="1.0" standalone="no"?>
<!DOCTYPE svg PUBLIC "-//W3C//DTD SVG 20010904//EN"
 "http://www.w3.org/TR/2001/REC-SVG-20010904/DTD/svg10.dtd">
<svg version="1.0" xmlns="http://www.w3.org/2000/svg"
 width="1577.000000pt" height="678.000000pt" viewBox="0 0 1577.000000 678.000000"
 preserveAspectRatio="xMidYMid meet">
<metadata>
Created by potrace 1.16, written by Peter Selinger 2001-2019
</metadata>
<g transform="translate(0.000000,678.000000) scale(0.100000,-0.100000)"
fill="#ffffff" stroke="none">
<path d="M11175 5308 c-92 -32 -313 -237 -441 -408 -71 -94 -348 -510 -416
-625 -131 -221 -259 -546 -307 -782 -26 -127 -29 -335 -5 -427 26 -104 87
-218 143 -268 66 -59 103 -76 200 -89 115 -15 202 0 319 56 129 62 228 133
342 245 79 78 114 104 196 146 98 51 270 121 278 113 2 -2 -5 -44 -15 -94 -10
-49 -19 -103 -19 -118 0 -97 101 -139 206 -84 68 35 181 191 198 273 6 27 14
33 75 52 37 12 73 22 80 22 18 0 11 -69 -19 -197 l-24 -103 20 -27 c14 -18 32
-29 52 -31 42 -4 62 18 173 190 58 91 99 144 121 158 56 34 58 31 58 -89 0
-119 7 -148 41 -180 29 -27 93 -28 136 -1 18 11 79 64 135 117 l103 98 6 -53
c4 -29 15 -62 25 -73 24 -27 83 -41 123 -29 41 11 54 22 103 83 36 46 38 47
38 22 0 -14 -7 -72 -16 -129 l-16 -103 -91 -114 c-173 -218 -277 -398 -337
-584 -27 -83 -33 -121 -38 -222 -5 -141 5 -192 50 -247 58 -71 147 -70 230 3
75 67 150 234 188 423 26 126 64 386 80 538 15 154 13 148 66 215 71 91 165
236 158 246 -13 22 -46 5 -114 -58 l-72 -67 7 145 c7 153 1 190 -34 208 -33
18 -63 -5 -121 -89 -54 -81 -100 -132 -100 -112 0 6 5 34 11 61 9 45 17 56 74
101 104 81 121 146 49 176 -33 14 -39 13 -80 -7 -29 -14 -57 -39 -82 -74 -31
-43 -52 -60 -127 -98 -49 -26 -122 -71 -162 -101 -78 -61 -75 -61 -88 20 -15
99 -75 137 -182 115 -60 -12 -148 -64 -182 -108 -24 -30 -31 -29 -31 3 0 15
-12 38 -30 56 -27 27 -34 29 -73 23 -23 -4 -76 -18 -117 -31 -65 -20 -76 -22
-90 -9 -26 23 -77 19 -105 -10 -38 -38 -34 -62 18 -98 17 -12 15 -17 -31 -78
-55 -72 -115 -129 -137 -129 -18 0 -20 48 -4 155 11 74 12 75 59 109 60 43 79
87 50 116 -11 11 -27 20 -35 20 -27 0 -71 -28 -101 -63 -28 -34 -63 -47 -296
-114 -13 -4 -8 13 23 73 33 65 40 90 42 143 1 58 -1 65 -28 88 -26 23 -35 25
-109 21 -78 -3 -85 -5 -196 -67 -234 -130 -356 -231 -414 -341 -23 -43 -30
-70 -33 -130 -4 -67 -2 -78 19 -103 14 -17 45 -35 77 -46 l53 -17 -60 -27
c-33 -15 -84 -32 -113 -37 -62 -12 -172 -4 -210 16 -46 23 -106 101 -135 177
-39 102 -46 294 -15 455 43 225 161 540 278 741 90 155 325 507 406 606 79 98
264 278 331 323 42 27 59 32 108 32 49 0 62 -4 89 -28 25 -22 31 -36 32 -72 2
-37 5 -45 21 -45 43 0 38 119 -7 187 -43 65 -149 95 -232 66z m45 -1800 c0
-26 -51 -113 -126 -213 -75 -101 -82 -107 -210 -175 -96 -52 -125 -63 -167
-64 -52 -1 -52 -1 -55 31 -4 46 40 124 103 181 108 98 307 232 374 252 14 5
38 9 54 9 22 1 27 -3 27 -21z m1775 -964 c-60 -322 -117 -512 -176 -594 -39
-54 -55 -51 -74 12 -37 126 -9 284 85 473 53 106 187 312 197 302 2 -2 -12
-89 -32 -193z"/>
<path d="M3934 5151 c-50 -23 -120 -101 -187 -210 -111 -181 -484 -463 -855
-649 -278 -139 -715 -307 -866 -333 -103 -17 -307 -7 -375 19 -79 31 -91 45
-91 108 0 61 15 78 105 115 30 12 55 29 55 36 0 20 -25 16 -105 -18 -90 -37
-129 -77 -144 -149 -13 -62 -1 -98 50 -148 75 -74 166 -102 361 -109 174 -7
217 0 420 67 441 147 953 415 1251 655 31 26 57 44 57 42 0 -14 -91 -717 -104
-802 -86 -561 -143 -873 -166 -898 -4 -5 -75 -39 -156 -76 -195 -87 -323 -175
-379 -257 -47 -69 -25 -168 46 -206 69 -37 206 -11 297 56 106 77 236 257 288
396 30 80 35 87 80 112 39 22 62 28 112 28 59 0 63 -2 73 -27 11 -28 6 -277
-7 -389 -6 -44 -3 -55 15 -73 40 -40 63 -25 121 79 46 82 190 260 228 283 16
9 44 17 61 17 36 0 34 6 35 -132 1 -115 19 -151 78 -156 43 -4 60 13 178 168
125 165 120 164 120 36 0 -161 27 -206 125 -206 56 0 143 37 257 109 74 47 78
48 78 23 0 -10 14 -31 30 -47 25 -24 41 -30 93 -33 56 -4 69 0 130 31 l67 36
0 -27 c0 -15 -5 -112 -11 -216 -10 -186 -11 -189 -48 -275 -21 -47 -66 -170
-100 -272 -55 -167 -61 -195 -61 -269 0 -78 1 -83 30 -112 26 -25 36 -29 63
-24 52 9 101 73 145 189 71 182 101 371 102 634 0 107 8 129 99 283 84 141
149 226 227 300 51 48 72 60 92 58 21 -2 28 -10 34 -38 11 -50 0 -104 -38
-192 -19 -42 -34 -83 -34 -92 0 -26 38 -56 70 -56 39 0 63 33 170 238 120 230
116 227 115 87 0 -115 0 -117 28 -141 64 -55 124 -18 201 124 26 50 64 105 82
123 l34 33 0 -115 c0 -138 14 -171 80 -189 97 -26 177 31 357 255 l32 40 1
-85 c1 -108 23 -164 74 -185 20 -8 46 -15 59 -15 35 0 121 47 176 96 27 24 51
44 52 44 2 0 2 -27 1 -60 -4 -55 -2 -62 26 -90 52 -51 116 -39 195 38 61 59
101 116 126 178 l19 49 17 -43 c22 -54 61 -82 115 -82 37 0 48 6 102 58 33 31
83 87 111 125 27 37 52 65 54 63 12 -11 -21 -84 -76 -169 -68 -104 -77 -145
-39 -171 12 -9 30 -16 40 -16 33 0 98 72 170 189 67 109 152 211 175 211 6 0
16 -46 23 -102 13 -112 37 -180 68 -197 31 -16 99 -13 140 6 21 9 96 75 169
146 115 113 131 132 122 149 -14 25 -15 25 -185 -82 -79 -50 -148 -90 -153
-90 -6 0 -11 6 -11 13 0 6 -5 53 -10 102 -14 117 -34 171 -70 190 -47 24 -79
5 -168 -103 -44 -54 -90 -106 -101 -116 -21 -19 -21 -19 -21 13 0 45 -25 98
-49 106 -28 9 -100 -31 -197 -110 -43 -35 -81 -62 -85 -59 -4 2 -12 35 -19 74
-13 79 -39 120 -76 120 -35 0 -57 -27 -93 -116 -18 -43 -40 -93 -48 -111 -17
-38 -133 -163 -150 -163 -17 0 1 57 52 166 36 77 55 103 124 170 44 44 81 87
81 96 0 26 -28 48 -61 48 -65 0 -116 -46 -183 -164 -39 -69 -56 -86 -136 -145
-96 -71 -216 -138 -227 -127 -3 3 -10 57 -14 119 -11 146 -15 171 -39 192 -32
29 -63 12 -103 -54 -45 -71 -164 -185 -236 -225 -29 -15 -54 -26 -56 -24 -2 1
-8 44 -14 95 -14 131 -40 173 -108 173 -34 0 -91 -45 -183 -144 l-65 -68 -11
76 c-17 107 -37 134 -94 126 -23 -3 -74 -56 -137 -142 -31 -43 -60 -78 -64
-78 -4 0 -10 12 -14 28 -11 46 -53 82 -96 82 -21 0 -49 -4 -64 -10 -60 -23
-182 -160 -305 -345 -29 -44 -58 -84 -63 -90 -5 -6 -6 56 -2 156 8 176 4 202
-36 214 -22 7 -59 -18 -59 -42 0 -18 -76 -99 -125 -133 -43 -29 -105 -48 -105
-32 0 40 44 137 90 197 52 68 102 163 115 217 5 21 1 33 -19 52 -14 15 -33 26
-42 26 -35 0 -100 -86 -167 -221 -60 -120 -72 -138 -119 -172 -55 -40 -280
-157 -303 -157 -8 0 -15 22 -19 68 -15 143 -55 222 -113 222 -37 -1 -53 -15
-169 -154 l-99 -120 -6 70 c-12 130 -56 183 -142 170 -62 -10 -85 -27 -206
-150 -63 -64 -115 -116 -116 -116 -2 0 -5 57 -7 128 -7 203 -33 240 -161 230
-35 -3 -81 -15 -105 -27 -46 -23 -47 -22 -32 29 16 53 135 897 175 1230 19
162 42 331 52 375 l17 79 134 136 c75 74 148 155 164 179 42 67 37 120 -13
146 -36 19 -45 19 -95 -4z m-664 -2432 c-53 -89 -177 -221 -234 -249 -49 -23
-124 -27 -132 -6 -9 23 25 77 95 150 57 60 82 77 186 127 66 31 122 55 124 53
2 -2 -16 -36 -39 -75z"/>
<path d="M7010 3544 c-10 -11 -11 -20 -3 -32 11 -19 63 -29 63 -13 0 6 -4 11
-9 11 -5 0 -11 10 -13 22 -4 27 -21 33 -38 12z"/>
<path d="M3933 3375 c-24 -17 -48 -78 -39 -101 5 -13 15 -14 49 -9 73 12 100
62 57 105 -24 24 -38 25 -67 5z"/>
</g>
</svg>
