<svg xmlns="http://www.w3.org/2000/svg" viewBox="0 0 1400 450" preserveAspectRatio="xMidYMid meet">
  <!-- Jingmian Gong signature logo vectorized -->

  <!-- Decorative top flourish -->
  <path d="M 120 200 Q 150 120 240 160 Q 280 185 310 240"
        stroke="#000000" stroke-width="22" fill="none" stroke-linecap="round" stroke-linejoin="round"/>

  <!-- J in Jingmian -->
  <path d="M 200 240 Q 220 160 280 160 Q 320 165 340 200 L 345 250 Q 350 290 340 320 Q 325 345 300 350 Q 270 352 260 330"
        stroke="#000000" stroke-width="20" fill="none" stroke-linecap="round" stroke-linejoin="round"/>

  <!-- i in Jingmian -->
  <circle cx="380" cy="150" r="12" fill="#000000"/>
  <path d="M 380 190 L 380 330" stroke="#000000" stroke-width="18" fill="none" stroke-linecap="round"/>

  <!-- n in Jingmian -->
  <path d="M 420 330 L 420 220 Q 420 180 460 180 Q 500 180 520 200 L 520 330"
        stroke="#000000" stroke-width="18" fill="none" stroke-linecap="round" stroke-linejoin="round"/>

  <!-- g in Jingmian -->
  <path d="M 560 330 L 560 210 Q 560 170 600 170 Q 640 170 660 190 L 660 330 L 660 380 Q 660 420 620 425 Q 580 428 560 400"
        stroke="#000000" stroke-width="18" fill="none" stroke-linecap="round" stroke-linejoin="round"/>

  <!-- m in Jingmian -->
  <path d="M 700 330 L 700 210 Q 700 170 740 170 Q 770 170 790 195 M 790 195 L 790 330 M 790 195 Q 790 170 830 170 Q 860 170 880 190 L 880 330"
        stroke="#000000" stroke-width="18" fill="none" stroke-linecap="round" stroke-linejoin="round"/>

  <!-- i in Jingmian -->
  <circle cx="930" cy="150" r="12" fill="#000000"/>
  <path d="M 930 190 L 930 330" stroke="#000000" stroke-width="18" fill="none" stroke-linecap="round"/>

  <!-- a in Jingmian -->
  <path d="M 980 330 L 980 240 Q 980 180 1030 180 Q 1070 180 1080 210 Q 1085 240 1070 280 Q 1050 330 1020 330 Q 980 330 975 290"
        stroke="#000000" stroke-width="18" fill="none" stroke-linecap="round" stroke-linejoin="round"/>

  <!-- n in Jingmian -->
  <path d="M 1120 330 L 1120 210 Q 1120 170 1160 170 Q 1200 170 1220 190 L 1220 330"
        stroke="#000000" stroke-width="18" fill="none" stroke-linecap="round" stroke-linejoin="round"/>

  <!-- G in Gong -->
  <path d="M 850 240 Q 850 180 920 180 Q 980 180 1000 210 Q 1015 240 1010 300 Q 1000 340 940 350 Q 880 355 860 320 L 860 270 L 950 270"
        stroke="#000000" stroke-width="20" fill="none" stroke-linecap="round" stroke-linejoin="round"/>

  <!-- o in Gong -->
  <path d="M 1080 180 Q 1140 180 1155 240 Q 1165 300 1150 330 Q 1130 360 1070 360 Q 1010 360 995 300 Q 985 240 1000 180 Q 1015 160 1060 160"
        stroke="#000000" stroke-width="18" fill="none" stroke-linecap="round" stroke-linejoin="round"/>

  <!-- n in Gong -->
  <path d="M 1220 350 L 1220 220 Q 1220 180 1260 180 Q 1300 180 1320 200 L 1320 350"
        stroke="#000000" stroke-width="18" fill="none" stroke-linecap="round" stroke-linejoin="round"/>

  <!-- g in Gong -->
  <path d="M 1360 350 L 1360 220 Q 1360 180 1400 180 Q 1440 180 1460 200 L 1460 350 L 1460 400 Q 1460 440 1420 445 Q 1380 450 1360 420"
        stroke="#000000" stroke-width="18" fill="none" stroke-linecap="round" stroke-linejoin="round"/>

  <!-- Decorative bottom right curl -->
  <path d="M 1320 360 Q 1360 380 1420 370 Q 1450 365 1470 340"
        stroke="#000000" stroke-width="16" fill="none" stroke-linecap="round" stroke-linejoin="round"/>
</svg>
